<svg width="18" height="13" viewBox="0 0 18 13" fill="none" xmlns="http://www.w3.org/2000/svg">
<path d="M8.31452 12.3088C8.39097 12.4198 8.49327 12.5106 8.6126 12.5733C8.73193 12.6361 8.86471 12.6688 8.99952 12.6688C9.13433 12.6688 9.26711 12.6361 9.38645 12.5733C9.50577 12.5106 9.60807 12.4198 9.68452 12.3088L17.1845 1.47547C17.2713 1.35052 17.3222 1.20416 17.3317 1.05231C17.3412 0.900452 17.3089 0.748905 17.2383 0.61413C17.1677 0.479356 17.0615 0.366509 16.9312 0.287851C16.801 0.209192 16.6517 0.16773 16.4995 0.16797H1.49952C1.34772 0.168597 1.19897 0.210592 1.06925 0.289439C0.939539 0.368286 0.833772 0.481001 0.763327 0.615464C0.692882 0.749927 0.660424 0.901049 0.669444 1.05258C0.678464 1.20411 0.728621 1.35031 0.81452 1.47547L8.31452 12.3088Z" fill="#106A64"/>
</svg>
